<?xml version="1.0" standalone="no"?>
<!DOCTYPE svg PUBLIC "-//W3C//DTD SVG 20010904//EN"
 "http://www.w3.org/TR/2001/REC-SVG-20010904/DTD/svg10.dtd">
<svg version="1.0" xmlns="http://www.w3.org/2000/svg"
 width="1300.000000pt" height="1300.000000pt" viewBox="0 0 1300.000000 1300.000000"
 preserveAspectRatio="xMidYMid meet">

<g transform="translate(0.000000,1300.000000) scale(0.100000,-0.100000)"
fill="#000000" stroke="none">
<path d="M4500 10443 c-174 -27 -310 -136 -364 -292 l-13 -35 -129 2 c-262 5
-507 -45 -709 -145 -133 -66 -225 -135 -328 -244 -175 -185 -276 -403 -334
-719 -27 -148 -24 -423 6 -560 82 -374 304 -771 667 -1195 192 -224 179 -211
200 -195 18 14 18 14 5 -3 -14 -17 0 -33 170 -201 212 -210 336 -322 574 -521
296 -246 703 -551 983 -734 85 -56 111 -78 106 -90 -13 -33 -17 -370 -5 -483
42 -393 180 -754 398 -1046 76 -101 249 -274 343 -344 315 -234 660 -332 1052
-299 225 19 414 70 617 167 219 104 390 244 495 403 189 288 188 580 -4 970
-17 35 -64 123 -105 196 -232 415 -295 592 -295 833 0 144 23 246 85 379 115
245 318 448 570 569 162 78 278 106 440 107 146 0 217 -11 349 -55 383 -128
709 -461 840 -858 45 -137 59 -225 59 -380 0 -219 -47 -409 -153 -620 -43 -85
-125 -220 -135 -220 -2 0 -37 33 -77 74 -113 114 -225 160 -383 159 -108 -1
-243 -39 -281 -80 -44 -48 -42 -61 66 -379 56 -165 135 -400 177 -524 41 -124
82 -236 90 -248 8 -13 30 -30 50 -38 32 -14 40 -13 116 12 45 15 106 42 137
60 213 127 302 372 225 623 l-28 90 40 48 c159 192 299 485 355 747 32 149 31
437 -1 584 -73 331 -255 636 -518 867 -83 73 -202 158 -215 153 -3 -2 -17 7
-30 19 -30 28 -168 92 -273 127 -121 40 -208 56 -340 62 -666 34 -1315 -515
-1387 -1174 -26 -233 45 -534 185 -794 19 -35 84 -155 145 -268 61 -113 129
-250 151 -305 98 -248 82 -439 -54 -630 -112 -157 -321 -296 -571 -380 -60
-20 -118 -39 -129 -41 -290 -53 -530 -48 -740 17 -105 31 -259 109 -360 180
-391 278 -640 757 -687 1320 -15 184 0 396 29 417 10 7 108 74 218 149 280
191 797 579 860 647 11 11 38 34 60 51 114 85 390 340 603 555 453 457 777
925 901 1300 67 201 83 283 88 460 14 431 -119 810 -371 1063 -247 248 -619
380 -1034 366 l-110 -4 -17 48 c-67 186 -276 308 -473 276 -145 -23 -262 -111
-329 -247 -37 -74 -38 -79 -38 -186 1 -106 2 -114 34 -181 174 -354 669 -333
810 36 9 24 15 26 92 32 46 4 137 2 203 -4 489 -41 796 -267 942 -693 48 -140
68 -276 68 -461 -1 -191 -12 -255 -82 -450 -177 -495 -649 -1072 -1407 -1720
-82 -70 -151 -132 -153 -137 -2 -4 -8 -8 -14 -8 -6 0 -34 -19 -62 -43 -149
-125 -508 -390 -742 -548 l-166 -111 -172 115 c-194 130 -220 149 -476 341
-590 443 -1075 893 -1411 1308 -424 523 -605 958 -569 1363 58 640 397 990
1010 1045 58 5 145 6 193 3 l88 -6 32 -66 c85 -175 278 -276 467 -243 232 40
393 258 361 486 -13 92 -57 181 -123 248 -63 65 -135 104 -227 124 -66 14 -84
15 -131 7z m1969 -247 c38 -20 78 -65 95 -108 65 -156 -82 -327 -247 -287 -68
16 -139 83 -157 149 -30 111 37 233 143 260 23 6 47 12 52 14 15 4 84 -13 114
-28z m-1841 8 c156 -65 178 -275 39 -370 -90 -62 -190 -52 -268 26 -75 75 -87
164 -33 257 52 90 165 128 262 87z m4937 -5391 c52 -27 110 -84 135 -133 11
-22 41 -103 66 -181 42 -127 46 -148 42 -209 -7 -87 -46 -160 -114 -212 -27
-21 -51 -38 -54 -38 -4 0 -259 748 -268 788 -6 23 141 12 193 -15z"/>
<path d="M5202 9233 c-61 -30 -62 -35 -62 -423 l0 -350 -351 0 -351 0 -29 -31
-29 -31 0 -270 c0 -293 3 -313 57 -337 16 -7 141 -11 363 -11 l340 0 0 -345
c0 -287 3 -351 15 -375 31 -60 31 -60 356 -60 284 0 297 1 322 21 15 11 31 37
36 57 5 21 9 183 8 369 l-2 333 337 0 c194 0 348 4 362 10 14 5 35 24 46 42
19 31 20 47 18 301 l-3 269 -33 29 -32 29 -345 0 -344 0 -3 353 c-3 383 -3
382 -61 417 -30 19 -52 20 -307 20 -234 0 -280 -3 -308 -17z m448 -552 c0
-218 4 -349 11 -369 6 -17 26 -41 44 -52 31 -19 48 -20 369 -20 l336 0 0 -120
0 -120 -340 0 c-300 0 -344 -2 -366 -16 -52 -35 -55 -52 -54 -347 0 -149 0
-305 0 -344 l0 -73 -145 0 -145 0 0 350 c0 249 -3 357 -12 375 -24 53 -38 55
-408 55 l-340 0 0 120 0 120 346 0 346 0 34 34 34 34 0 355 0 356 43 3 c23 2
88 2 145 0 l102 -3 0 -338z"/>
</g>
</svg>
