<?xml version="1.0" standalone="no"?>
<!DOCTYPE svg PUBLIC "-//W3C//DTD SVG 20010904//EN"
 "http://www.w3.org/TR/2001/REC-SVG-20010904/DTD/svg10.dtd">
<svg version="1.0" xmlns="http://www.w3.org/2000/svg"
 width="860.000000pt" height="901.000000pt" viewBox="0 0 860.000000 901.000000"
 preserveAspectRatio="xMidYMid meet">

<g transform="translate(0.000000,901.000000) scale(0.100000,-0.100000)"
fill="#000000" stroke="none">
<path d="M8124 8578 c-76 -58 -348 -323 -1339 -1310 l-480 -478 -39 27 -39 28
-490 3 -491 3 -1783 -1783 -1783 -1783 -138 138 c-75 75 -142 137 -147 137 -6
0 -49 -38 -95 -85 l-85 -85 579 -579 579 -579 -349 -346 -349 -345 -135 134
c-74 74 -140 135 -145 135 -6 0 -49 -38 -95 -85 l-85 -85 265 -265 265 -265
-98 -97 -97 -98 -472 473 -473 472 96 96 97 97 88 -85 c99 -94 119 -108 162
-108 48 0 125 67 430 372 l282 283 -89 89 -90 89 -261 -259 c-143 -142 -263
-261 -265 -263 -2 -2 -47 36 -100 83 -111 100 -133 112 -184 95 -47 -15 -456
-420 -466 -461 -12 -46 1 -71 79 -159 104 -118 1042 -1049 1095 -1088 61 -43
96 -41 158 8 74 60 378 372 397 408 33 65 24 86 -93 213 l-84 92 346 346 347
347 263 -263 c144 -144 267 -262 272 -262 6 0 49 38 95 85 l85 85 -139 139
c-113 114 -137 142 -128 154 7 8 809 810 1782 1783 l1771 1769 -3 491 -3 491
-29 42 -29 42 849 852 c468 469 871 877 896 907 83 101 88 132 29 191 -46 46
-91 52 -137 17z m-1912 -2065 l88 -88 0 -255 0 -255 -263 263 -262 262 -90
-90 -90 -90 323 -323 c177 -177 322 -327 322 -332 0 -13 -3422 -3435 -3435
-3435 -6 0 -221 211 -480 470 l-469 469 140 138 c77 76 150 147 162 157 l23
20 139 -139 140 -140 85 85 c47 46 85 89 85 95 0 6 -61 71 -135 145 l-135 135
97 97 98 98 140 -140 140 -140 90 90 90 90 -140 140 -140 140 98 97 97 98 140
-140 140 -140 85 85 c47 46 85 89 85 95 0 6 -61 71 -135 145 l-135 135 97 97
98 98 140 -140 140 -140 90 90 90 90 -140 140 -140 140 98 97 97 98 140 -140
140 -140 85 85 c47 46 85 89 85 95 0 6 -61 71 -135 145 l-135 135 92 92 c51
51 97 93 103 93 5 0 71 -61 145 -135 l135 -135 90 90 90 90 -140 140 -140 140
98 97 97 98 140 -140 140 -140 85 85 c47 46 85 89 85 95 0 6 -61 71 -135 145
l-135 135 97 97 98 98 140 -140 140 -140 90 90 90 90 -140 140 -140 140 185
185 185 185 385 0 385 0 87 -87z"/>
<path d="M7623 6960 c-44 -26 -62 -57 -73 -123 -13 -80 -43 -150 -240 -562
-98 -203 -192 -412 -210 -464 -58 -170 -52 -319 19 -458 72 -144 174 -241 331
-317 l85 -41 146 0 147 0 98 50 c161 81 280 215 346 387 24 64 26 229 3 317
-22 87 -84 227 -252 576 -167 344 -198 418 -218 509 -16 79 -29 102 -68 126
-41 25 -74 25 -114 0z m139 -667 c105 -203 230 -472 262 -565 53 -155 29 -274
-78 -382 -89 -91 -137 -111 -261 -111 -132 1 -197 25 -276 104 -72 72 -101
145 -101 251 0 87 11 124 92 299 135 293 265 551 279 551 4 0 41 -66 83 -147z"/>
</g>
</svg>
