<svg width="100" height="50" viewBox="0 0 100 50" fill="none" xmlns="http://www.w3.org/2000/svg">
<g clip-path="url(#clip0_2827_555)">
<path d="M0 39.9999C0 39.9999 7.91667 40.0653 11.875 39.9999C15.8333 39.9346 19.7917 39.6078 23.75 39.6078C27.7083 39.6078 31.6667 39.9999 35.625 39.9999C39.5833 39.9999 43.5417 39.6078 47.5 39.6078C51.4583 39.6078 55.4167 39.9346 59.375 39.9999C63.3333 40.0653 67.2917 40.196 71.25 39.9999C75.2083 39.8039 79.1667 38.9542 83.125 38.8235C87.0833 38.6928 95 39.2156 95 39.2156" stroke="#6C757D" stroke-width="3"/>
<path d="M95 41.2157C96.1046 41.2157 97 40.3203 97 39.2157C97 38.1111 96.1046 37.2157 95 37.2157C93.8954 37.2157 93 38.1111 93 39.2157C93 40.3203 93.8954 41.2157 95 41.2157Z" fill="#6C757D" stroke="#6C757D"/>
</g>
<defs>
<clipPath id="clip0_2827_555">
<rect width="100" height="50" fill="white"/>
</clipPath>
</defs>
</svg>
