<svg width="100" height="50" viewBox="0 0 100 50" fill="none" xmlns="http://www.w3.org/2000/svg">
<g clip-path="url(#clip0_2827_948)">
<path d="M0 40.6471C0 40.6471 7.91667 38.3595 11.875 37.5098C15.8333 36.6601 19.7917 36.268 23.75 35.549C27.7083 34.8301 31.6667 33.7843 35.625 33.1961C39.5833 32.6078 43.5417 34.2418 47.5 32.0196C51.4583 29.7974 55.4167 23 59.375 19.8627C63.3333 16.7255 67.2917 13.8497 71.25 13.1961C75.2083 12.5425 79.1667 17.6405 83.125 15.9412C87.0833 14.2418 95 3 95 3" stroke="#FF073A" stroke-width="3"/>
<path d="M95 5C96.1046 5 97 4.10457 97 3C97 1.89543 96.1046 1 95 1C93.8954 1 93 1.89543 93 3C93 4.10457 93.8954 5 95 5Z" fill="#FF073A" stroke="#FF073A"/>
</g>
<defs>
<clipPath id="clip0_2827_948">
<rect width="100" height="50" fill="white"/>
</clipPath>
</defs>
</svg>
