<svg width="193" height="126" viewBox="0 0 193 126" fill="none" xmlns="http://www.w3.org/2000/svg">
<path d="M131.576 81.216C128.085 81.564 124.928 79.5787 123.469 76.478L119.332 76.8407L116.208 78.3397C115.494 78.6814 115.013 79.3606 114.904 80.1405C114.609 82.2432 114.073 84.2684 113.329 86.1929C113.076 86.8449 113.121 87.5724 113.464 88.1803L114.577 90.1594L115.449 90.0021C117.08 89.3816 118.979 89.5304 120.541 90.5724C123.188 92.3397 123.823 95.977 121.854 98.5367C120.16 100.742 117.009 101.348 114.61 99.9309C113.082 99.0294 112.159 97.5325 111.933 95.933L110.726 95.868L108.568 95.6059C107.826 95.5158 107.089 95.7694 106.549 96.2831C104.728 98.0084 102.671 99.4906 100.435 100.677C99.6822 101.076 99.1995 101.841 99.1468 102.686L98.8728 107.034L100.23 112.39C102.54 113.031 104.45 114.853 105.078 117.331C106.026 121.078 103.687 124.878 99.8719 125.723C96.43 126.486 92.8997 124.491 91.8058 121.155C90.9543 118.551 91.7362 115.86 93.5362 114.101L92.1725 108.713L90.067 105.346C89.5021 104.442 88.5031 103.908 87.4324 103.91C87.426 103.91 87.4218 103.91 87.4155 103.91C85.5713 103.91 83.7671 103.728 82.022 103.386C80.9829 103.18 79.9101 103.507 79.1808 104.273L76.3987 107.193L73.2835 113.621C74.0128 115.094 74.0781 116.874 73.3067 118.47C71.9199 121.329 68.3832 122.465 65.5568 120.885C63.1372 119.528 62.0897 116.535 63.1435 113.977C63.8622 112.233 65.3524 111.067 67.0385 110.677L70.1726 104.208L70.7881 99.8659C70.8998 99.065 70.592 98.2579 69.9597 97.7506C67.4664 95.738 65.3292 93.3082 63.6578 90.5661C63.2426 89.8847 62.4965 89.4717 61.6955 89.4654L57.3369 89.4235L57.0095 88.694C56.6744 91.6457 54.6426 94.2684 51.6118 95.216C47.5398 96.4906 43.2022 94.2642 41.8807 90.239C40.5591 86.216 42.7912 81.8156 46.8316 80.4864C49.6601 79.5556 52.6319 80.3292 54.6426 82.2306L59.7074 80.6457L58.9619 80.2453C59.512 79.8575 59.805 79.2076 59.7502 78.5409C59.689 77.8009 59.6574 77.0545 59.6574 76.2998C59.6574 72.1992 60.5637 68.3061 62.1824 64.8051C62.4185 64.2914 62.4122 63.7002 62.1635 63.1929L61.0675 60.9644L58.0935 58.7317C56.4285 59.2621 54.5421 59.0084 53.0414 57.8826C50.4954 55.9707 50.0654 52.304 52.1731 49.8575C53.9878 47.7506 57.1683 47.3187 59.4846 48.8659C60.96 49.8512 61.7988 51.3942 61.9337 53.0042L65.2301 55.478L68.5518 56.0671C70.9693 53.8344 73.7873 52.0252 76.8834 50.7568L77.6633 46.0441L76.679 41.1761C73.7662 40.4298 71.4014 38.2097 70.7649 35.2495C69.867 31.0671 72.7566 26.9937 77.2207 26.1531C81.6826 25.3124 86.0287 28.0189 86.9265 32.2013C87.5989 35.3313 86.1509 38.3984 83.5079 40.0965L84.4374 44.6877L86.72 48.3103C86.8696 48.5472 87.131 48.6898 87.4113 48.6898C92.6425 48.6898 97.5366 50.1363 101.716 52.6478C101.946 52.7841 102.228 52.803 102.471 52.6898L106.045 51.042L110.218 46.5514C109.968 44.9413 110.429 43.2348 111.628 41.9455C113.795 39.6164 117.505 39.5577 119.743 41.8868C121.705 43.9308 121.781 47.1908 119.918 49.325C118.712 50.7065 116.982 51.3438 115.292 51.2181L111.118 55.7086L109.763 59.3355C109.668 59.587 109.71 59.868 109.869 60.086C111.515 62.3334 112.828 64.8365 113.734 67.5241C113.985 68.2621 114.575 68.8365 115.33 69.0483L118.723 69.9937L123.132 69.6059C124.213 66.5053 126.913 64.1594 130.229 63.8281C134.788 63.3732 138.786 66.8973 139.157 71.6981C139.53 76.499 136.134 80.761 131.576 81.216Z" fill="#EB5569" fill-opacity="0.61"/>
<circle cx="86.5" cy="77" r="22" fill="#F58A97" fill-opacity="0.25"/>
<path fill-rule="evenodd" clip-rule="evenodd" d="M90.5 55.3628C80.2595 57.2438 72.5 66.2157 72.5 77C72.5 87.7843 80.2595 96.7562 90.5 98.6372C89.2029 98.8755 87.866 99 86.5 99C74.3497 99 64.5 89.1503 64.5 77C64.5 64.8497 74.3497 55 86.5 55C87.866 55 89.2029 55.1245 90.5 55.3628Z" fill="#F07281" fill-opacity="0.41"/>
<circle cx="82.5" cy="71" r="5" fill="#EB5569" fill-opacity="0.61"/>
<circle cx="99.5" cy="73" r="3" fill="#EB5569" fill-opacity="0.61"/>
<path d="M57.0626 34.7861C54.8637 35.0053 52.8746 33.7546 51.9557 31.8012L49.3492 32.0296L47.3813 32.974C46.9312 33.1893 46.6284 33.6172 46.5594 34.1085C46.3735 35.4332 46.0362 36.7091 45.5675 37.9215C45.4082 38.3323 45.436 38.7906 45.6525 39.1736L46.3536 40.4204L46.9028 40.3213C47.9306 39.9304 49.127 40.0242 50.1109 40.6806C51.7787 41.794 52.1783 44.0855 50.9381 45.6981C49.8706 47.0876 47.8854 47.4693 46.3744 46.5764C45.4117 46.0085 44.8301 45.0655 44.688 44.0578L43.9276 44.0168L42.5679 43.8517C42.1005 43.7949 41.6358 43.9547 41.2959 44.2783C40.1486 45.3653 38.8526 46.2991 37.4438 47.0466C36.9698 47.2976 36.6657 47.7796 36.6325 48.3119L36.4599 51.0512L37.315 54.4257C38.7703 54.8298 39.9733 55.9776 40.369 57.5387C40.9666 59.8989 39.4927 62.2934 37.0893 62.8257C34.9209 63.3064 32.6968 62.0491 32.0077 59.9478C31.4712 58.3074 31.9638 56.6115 33.0978 55.5034L32.2387 52.1091L30.9122 49.9879C30.5563 49.4187 29.9269 49.0819 29.2524 49.0832C29.2484 49.0832 29.2458 49.0832 29.2418 49.0832C28.0799 49.0832 26.9433 48.9683 25.8438 48.753C25.1892 48.6236 24.5133 48.8296 24.0539 49.3117L22.3012 51.1515L20.3386 55.201C20.7981 56.1295 20.8392 57.2508 20.3532 58.2559C19.4795 60.0574 17.2514 60.7732 15.4708 59.7774C13.9464 58.9229 13.2865 57.0368 13.9504 55.4255C14.4032 54.3266 15.342 53.5923 16.4043 53.3466L18.3787 49.2708L18.7665 46.5355C18.8369 46.031 18.643 45.5225 18.2446 45.2029C16.6738 43.9349 15.3274 42.4042 14.2744 40.6766C14.0128 40.2474 13.5428 39.9872 13.0382 39.9832L10.2922 39.9568L10.086 39.4972C9.87489 41.3568 8.59486 43.0091 6.68543 43.6061C4.12005 44.4091 1.38737 43.0064 0.554815 40.4706C-0.277737 37.9361 1.12844 35.1638 3.6739 34.3264C5.45585 33.74 7.3281 34.2274 8.59486 35.4253L11.7856 34.4268L11.316 34.1745C11.6626 33.9302 11.8471 33.5208 11.8126 33.1008C11.7741 32.6345 11.7542 32.1644 11.7542 31.6889C11.7542 29.1055 12.3251 26.6529 13.3449 24.4472C13.4936 24.1236 13.4897 23.7512 13.333 23.4315L12.6425 22.0276L10.7689 20.621C9.71994 20.9551 8.53153 20.7953 7.58611 20.0861C5.98208 18.8815 5.7112 16.5715 7.03904 15.0302C8.1823 13.7028 10.186 13.4308 11.6453 14.4055C12.5748 15.0262 13.1033 15.9983 13.1882 17.0127L15.265 18.5712L17.3576 18.9423C18.8807 17.5357 20.656 16.3959 22.6066 15.5968L23.0979 12.6278L22.4778 9.56096C20.6427 9.09077 19.1529 7.69209 18.7519 5.82719C18.1862 3.19228 20.0067 0.626055 22.819 0.096432C25.6301 -0.433191 28.3681 1.2719 28.9337 3.90681C29.3573 5.8787 28.4451 7.81096 26.78 8.88077L27.3655 11.7732L28.8036 14.0555C28.8979 14.2047 29.0625 14.2945 29.2391 14.2945C32.5348 14.2945 35.618 15.2059 38.2511 16.7881C38.3959 16.874 38.5738 16.8859 38.7265 16.8145L40.9785 15.7764L43.6076 12.9474C43.4496 11.933 43.7404 10.8579 44.4959 10.0457C45.861 8.57832 48.1979 8.54134 49.6081 10.0087C50.8443 11.2964 50.8921 13.3502 49.7183 14.6947C48.9588 15.5651 47.8686 15.9666 46.8037 15.8874L44.1746 18.7164L43.3208 21.0013C43.2611 21.1598 43.2876 21.3368 43.3872 21.4742C44.4242 22.89 45.2515 24.467 45.8224 26.1602C45.9805 26.6251 46.3522 26.987 46.8276 27.1204L48.9654 27.7161L51.7433 27.4717C52.4244 25.5183 54.1254 24.0404 56.2141 23.8317C59.0862 23.5451 61.6051 25.7653 61.8388 28.7898C62.0738 31.8144 59.9347 34.4995 57.0626 34.7861Z" fill="#EB5569" fill-opacity="0.61"/>
<circle cx="28.665" cy="32.13" r="13.86" fill="#F58A97" fill-opacity="0.25"/>
<path fill-rule="evenodd" clip-rule="evenodd" d="M31.185 45.7615C24.7335 44.5764 19.845 38.9241 19.845 32.13C19.845 25.3359 24.7335 19.6836 31.1849 18.4985C30.3678 18.3484 29.5255 18.27 28.665 18.27C21.0103 18.27 14.805 24.4754 14.805 32.13C14.805 39.7847 21.0103 45.99 28.665 45.99C29.5256 45.99 30.3679 45.9116 31.185 45.7615Z" fill="#F07281" fill-opacity="0.41"/>
<circle cx="26.145" cy="28.3502" r="3.15" fill="#EB5569" fill-opacity="0.61"/>
<circle cx="29.295" cy="37.7998" r="2.52" fill="#EB5569" fill-opacity="0.61"/>
<circle cx="36.855" cy="29.6102" r="1.89" fill="#EB5569" fill-opacity="0.61"/>
<path d="M186.78 47.4425C184.476 47.6722 182.392 46.3619 181.43 44.3155L178.699 44.5549L176.638 45.5442C176.166 45.7697 175.849 46.218 175.776 46.7327C175.582 48.1205 175.228 49.4571 174.737 50.7273C174.57 51.1576 174.6 51.6378 174.826 52.039L175.561 53.3452L176.136 53.2414C177.213 52.8318 178.466 52.9301 179.497 53.6178C181.244 54.7842 181.663 57.1848 180.364 58.8742C179.245 60.3298 177.166 60.7297 175.583 59.7944C174.574 59.1994 173.965 58.2115 173.816 57.1558L173.019 57.1129L171.595 56.9399C171.105 56.8804 170.618 57.0478 170.262 57.3868C169.06 58.5256 167.703 59.5038 166.227 60.2869C165.73 60.5498 165.412 61.0549 165.377 61.6125L165.196 64.4822L166.092 68.0174C167.617 68.4408 168.877 69.6432 169.291 71.2786C169.917 73.7512 168.373 76.2598 165.855 76.8174C163.584 77.321 161.254 76.0038 160.532 73.8024C159.97 72.0839 160.486 70.3073 161.674 69.1464L160.774 65.5905L159.384 63.3683C159.011 62.772 158.352 62.4191 157.645 62.4205C157.641 62.4205 157.638 62.4205 157.634 62.4205C156.417 62.4205 155.226 62.3002 154.074 62.0746C153.389 61.939 152.681 62.1549 152.199 62.6599L150.363 64.5873L148.307 68.8296C148.788 69.8023 148.832 70.977 148.322 72.03C147.407 73.9173 145.073 74.6672 143.207 73.6239C141.611 72.7287 140.919 70.7529 141.615 69.0648C142.089 67.9136 143.073 67.1443 144.185 66.8869L146.254 62.617L146.66 59.7515C146.734 59.2229 146.531 58.6902 146.113 58.3554C144.468 57.0271 143.057 55.4234 141.954 53.6136C141.68 53.1639 141.188 52.8913 140.659 52.8872L137.782 52.8595L137.566 52.378C137.345 54.3262 136.004 56.0571 134.004 56.6825C131.316 57.5238 128.453 56.0544 127.581 53.3978C126.709 50.7425 128.182 47.8383 130.849 46.961C132.716 46.3467 134.677 46.8573 136.004 48.1122L139.347 47.0662L138.855 46.8019C139.218 46.5459 139.411 46.117 139.375 45.677C139.335 45.1886 139.314 44.696 139.314 44.1979C139.314 41.4915 139.912 38.922 140.98 36.6113C141.136 36.2724 141.132 35.8822 140.968 35.5473L140.245 34.0765L138.282 32.6029C137.183 32.953 135.938 32.7856 134.947 32.0425C133.267 30.7807 132.983 28.3607 134.374 26.7459C135.572 25.3554 137.671 25.0703 139.2 26.0915C140.174 26.7418 140.727 27.7601 140.816 28.8228L142.992 30.4555L145.184 30.8443C146.78 29.3707 148.64 28.1766 150.683 27.3395L151.198 24.2291L150.548 21.0162C148.626 20.5237 147.065 19.0584 146.645 17.1047C146.052 14.3443 147.959 11.6559 150.906 11.101C153.851 10.5462 156.719 12.3325 157.311 15.0928C157.755 17.1586 156.8 19.1829 155.055 20.3037L155.669 23.3339L157.175 25.7248C157.274 25.8812 157.446 25.9752 157.631 25.9752C161.084 25.9752 164.314 26.93 167.073 28.5876C167.224 28.6775 167.411 28.69 167.571 28.6152L169.93 27.5277L172.684 24.5639C172.519 23.5013 172.823 22.375 173.615 21.524C175.045 19.9868 177.493 19.9481 178.97 21.4853C180.265 22.8344 180.316 24.9859 179.086 26.3945C178.29 27.3063 177.148 27.7269 176.032 27.6439L173.278 30.6077L172.384 33.0014C172.321 33.1674 172.349 33.3529 172.453 33.4968C173.54 34.98 174.406 36.6321 175.004 38.4059C175.17 38.893 175.559 39.2721 176.057 39.4118L178.297 40.0359L181.207 39.7799C181.921 37.7335 183.703 36.1852 185.891 35.9666C188.9 35.6663 191.539 37.9922 191.783 41.1608C192.03 44.3293 189.789 47.1423 186.78 47.4425Z" fill="#EB5569" fill-opacity="0.61"/>
<circle cx="157.03" cy="44.6601" r="14.52" fill="#F58A97" fill-opacity="0.25"/>
<path fill-rule="evenodd" clip-rule="evenodd" d="M159.67 30.3795C158.814 30.2223 157.931 30.1401 157.03 30.1401C149.011 30.1401 142.51 36.641 142.51 44.6601C142.51 52.6793 149.011 59.1801 157.03 59.1801C157.932 59.1801 158.814 59.0979 159.67 58.9407C152.911 57.6993 147.79 51.7778 147.79 44.66C147.79 37.5425 152.911 31.6211 159.67 30.3795Z" fill="#F07281" fill-opacity="0.41"/>
<circle cx="154.39" cy="40.6999" r="3.3" fill="#EB5569" fill-opacity="0.61"/>
<circle cx="157.69" cy="50.6" r="2.64" fill="#EB5569" fill-opacity="0.61"/>
<circle cx="165.61" cy="42.02" r="1.98" fill="#EB5569" fill-opacity="0.61"/>
<path d="M80 89V89C84.1966 82.7137 93.3824 82.5601 97.7868 88.7027L98 89" stroke="#EE6E7E"/>
</svg>
