<svg width="101" height="100" viewBox="0 0 101 100" fill="none" xmlns="http://www.w3.org/2000/svg">
<g clip-path="url(#clip0_347_2)">
<path d="M91.0755 55.216C87.5852 55.564 84.4279 53.5787 82.9694 50.478L78.832 50.8407L75.7085 52.3397C74.9939 52.6814 74.5134 53.3606 74.4038 54.1405C74.1087 56.2432 73.5734 58.2684 72.8294 60.1929C72.5764 60.8449 72.6207 61.5724 72.9643 62.1803L74.0771 64.1594L74.949 64.0021C76.5803 63.3816 78.4793 63.5304 80.0411 64.5724C82.6883 66.3397 83.3227 69.977 81.3542 72.5367C79.6596 74.7422 76.5086 75.348 74.1101 73.9309C72.582 73.0294 71.6589 71.5325 71.4333 69.933L70.2264 69.868L68.0681 69.6059C67.3262 69.5158 66.5885 69.7694 66.049 70.2831C64.2279 72.0084 62.1709 73.4906 59.9346 74.6772C59.1822 75.0755 58.6995 75.8407 58.6468 76.6856L58.3728 81.0336L59.7302 86.39C62.0402 87.0315 63.9497 88.8533 64.5778 91.3313C65.5263 95.0776 63.1868 98.8784 59.3719 99.7233C55.93 100.486 52.3997 98.4906 51.3058 95.1552C50.4543 92.5514 51.2362 89.8596 53.0362 88.1007L51.6725 82.7128L49.567 79.3459C49.0021 78.4424 48.0031 77.9078 46.9324 77.9099C46.926 77.9099 46.9218 77.9099 46.9155 77.9099C45.0713 77.9099 43.2671 77.7275 41.522 77.3858C40.4829 77.1803 39.4101 77.5074 38.6808 78.2726L35.8987 81.1929L32.7835 87.6206C33.5128 89.0944 33.5781 90.8743 32.8067 92.4696C31.4199 95.3292 27.8832 96.4654 25.0568 94.8847C22.6372 93.5283 21.5897 90.5346 22.6435 87.977C23.3622 86.2327 24.8524 85.0671 26.5385 84.6772L29.6726 78.2076L30.2881 73.8659C30.3998 73.065 30.092 72.2579 29.4597 71.7506C26.9664 69.738 24.8292 67.3082 23.1578 64.5661C22.7426 63.8847 21.9965 63.4717 21.1955 63.4654L16.8369 63.4235L16.5095 62.694C16.1744 65.6457 14.1426 68.2684 11.1118 69.216C7.03976 70.4906 2.70217 68.2642 1.38066 64.239C0.0591434 60.216 2.29117 55.8156 6.33158 54.4864C9.16008 53.5556 12.1319 54.3292 14.1426 56.2306L19.2074 54.6457L18.4619 54.2453C19.012 53.8575 19.305 53.2076 19.2502 52.5409C19.189 51.8009 19.1574 51.0545 19.1574 50.2998C19.1574 46.1992 20.0637 42.3061 21.6824 38.8051C21.9185 38.2914 21.9122 37.7002 21.6635 37.1929L20.5675 34.9644L17.5935 32.7317C15.9285 33.2621 14.0421 33.0084 12.5414 31.8826C9.99536 29.9707 9.5654 26.304 11.6731 23.8575C13.4878 21.7506 16.6683 21.3187 18.9846 22.8659C20.46 23.8512 21.2988 25.3942 21.4337 27.0042L24.7301 29.478L28.0518 30.0671C30.4693 27.8344 33.2873 26.0252 36.3834 24.7568L37.1633 20.0441L36.179 15.1761C33.2662 14.4298 30.9014 12.2097 30.2649 9.2495C29.367 5.06711 32.2566 0.993738 36.7207 0.153067C41.1826 -0.687604 45.5287 2.0189 46.4265 6.20129C47.0989 9.33127 45.6509 12.3984 43.0079 14.0965L43.9374 18.6877L46.22 22.3103C46.3696 22.5472 46.631 22.6898 46.9113 22.6898C52.1425 22.6898 57.0366 24.1363 61.2161 26.6478C61.4458 26.7841 61.7282 26.803 61.9706 26.6898L65.5452 25.042L69.7184 20.5514C69.4676 18.9413 69.9292 17.2348 71.1285 15.9455C73.2952 13.6164 77.0047 13.5577 79.243 15.8868C81.2053 17.9308 81.2811 21.1908 79.418 23.325C78.2124 24.7065 76.482 25.3438 74.7916 25.2181L70.6184 29.7086L69.2632 33.3355C69.1683 33.587 69.2105 33.868 69.3686 34.086C71.0147 36.3334 72.3277 38.8365 73.234 41.5241C73.4848 42.2621 74.075 42.8365 74.8295 43.0483L78.2229 43.9937L82.6322 43.6059C83.7134 40.5053 86.4133 38.1594 89.7287 37.8281C94.2876 37.3732 98.2859 40.8973 98.6568 45.6981C99.0299 50.499 95.6344 54.761 91.0755 55.216Z" fill="#EB5569" fill-opacity="0.61"/>
<circle cx="46" cy="51" r="22" fill="#F58A97" fill-opacity="0.25"/>
<path fill-rule="evenodd" clip-rule="evenodd" d="M50 29.3628C39.7595 31.2438 32 40.2157 32 51C32 61.7843 39.7595 70.7562 50 72.6372C48.7029 72.8755 47.366 73 46 73C33.8497 73 24 63.1503 24 51C24 38.8497 33.8497 29 46 29C47.366 29 48.7029 29.1245 50 29.3628Z" fill="#F07281" fill-opacity="0.41"/>
<circle cx="42" cy="45" r="5" fill="#EB5569" fill-opacity="0.61"/>
<circle cx="47" cy="60" r="4" fill="#EB5569" fill-opacity="0.61"/>
<circle cx="59" cy="47" r="3" fill="#EB5569" fill-opacity="0.61"/>
</g>
<defs>
<clipPath id="clip0_347_2">
<rect width="100" height="100" fill="white" transform="translate(0.5)"/>
</clipPath>
</defs>
</svg>
